<svg data-svgs-path="theme_dark/inbox_zero.svg" viewBox="0 0 220 200" xmlns="http://www.w3.org/2000/svg" fill-rule="evenodd" clip-rule="evenodd" stroke-linecap="round" stroke-linejoin="round" stroke-miterlimit="1.5"><g transform="translate(-2050)"><g id="InboxZero"><path fill="none" d="M1800-100h300v300h-300z" transform="matrix(.73333 0 0 .66667 730 66.667)"></path><path d="M2086.71 175.604h-.01a20.259 20.259 0 0 1-15.09-6.38 20.287 20.287 0 0 1-5.45-15.461c.38-4.855.77-9.763 1.09-13.866a53.696 53.696 0 0 0-2.2-19.88v-.001c-6.68-21.745.2-45.38 17.51-60.138l.33-.279a79.664 79.664 0 0 1 78.4-14.429c11.37 4.099 22.96 6.463 34.85 6.365a56.598 56.598 0 0 1 47.4 24.752c2.32 3.332 4.63 6.716 6.84 9.97a47.208 47.208 0 0 1 3.2 47.659v.001a33.39 33.39 0 0 0-3.53 14.937v4.835c0 5.634-2.24 11.036-6.22 15.017a21.24 21.24 0 0 1-15.03 6.211l-7.39-.006-2.58.02-14.59-1.345c-24.6-2.267-43.6-22.615-44.17-47.313-.04-1.678-.06-2.661-.06-2.661-5.6 8.243-12.27 7.529-12.27 7.529-9.78 34.378-49.03 43.171-60.27 44.463h-.76zm146.79-52.005c1.01.074 1.15 1.914 0 1.998-3.05.073-6.51.611-6.98-.645-.22-.587.23-1.305.89-1.353 2.03-.049 4.06-.049 6.09 0zm-12.05-38.76c-.11-4.922-4.5-8.886-9.9-8.886-2.74 0-5.23 1.023-7.02 2.675-1.44-5.562-7.19-9.78-14.12-9.892-3.26-.053-6.29.814-8.75 2.322-5.86-5.629-13.88-9.1-22.71-9.1-7.53 0-14.47 2.526-19.98 6.764-2.69-1.971-6.1-3.148-9.8-3.148-7.74 0-14.18 5.15-15.52 11.933-1.92-1.808-4.58-2.926-7.51-2.926-5.87 0-10.64 4.497-10.64 10.037 0 .259.01.517.03.772h-5.22c-.09 0-.17.002-.26.007h-3.9a4.635 4.635 0 0 0-4.63 4.628 4.635 4.635 0 0 0 4.63 4.629h50.95c.12 1.423.23 3.215.14 4.417h-21.26a2.757 2.757 0 0 0-2.76 2.761 2.757 2.757 0 0 0 2.76 2.761h20.23c-.53 3.385-.75 7.571 1.03 10.897 3.69 6.911 10.17 12.183 23.79 5.39 11.57-5.766 17.5-20.453 10.9-21.619-4.37-.771-7.3 6.849-7.3 6.849s-4.15-7.285-4.33-12.183h20.18c.4.115.83.176 1.27.176h49.81c2.56 0 4.64-2.075 4.64-4.632a4.64 4.64 0 0 0-4.64-4.632h-10.11zm-120 35.11c1.37-.075 1.14-1.826.11-1.994l-.11-.006h-31.35c-1.45.079-1.07 1.942 0 2h31.35zm35.01 0c1.37-.075 1.14-1.826.11-1.994l-.11-.006h-30.01c-1.46.079-1.07 1.942 0 2h30.01zm104.99 0c1.19-.089 1.15-1.761.15-1.989a7.56 7.56 0 0 0-.15-.011h-57.46c-1.34.1-1.08 1.919 0 2h57.46zm-26.21-6.315a2.211 2.211 0 0 0 2.21-2.209 2.21 2.21 0 0 0-2.21-2.209h-29.04c-1.22 0-2.21.99-2.21 2.209a2.21 2.21 0 0 0 2.21 2.209h29.04zm16 0a2.211 2.211 0 0 0 2.21-2.209 2.21 2.21 0 0 0-2.21-2.209h-5.58c-1.22 0-2.21.99-2.21 2.209a2.21 2.21 0 0 0 2.21 2.209h5.58zm-140.84 0a2.211 2.211 0 0 0 2.21-2.209 2.21 2.21 0 0 0-2.21-2.209h-4.59c-1.22 0-2.21.99-2.21 2.209a2.21 2.21 0 0 0 2.21 2.209h4.59zm41.86 0a2.209 2.209 0 0 0 0-4.418h-30.74c-1.22 0-2.2.99-2.2 2.209s.98 2.209 2.2 2.209h30.74zm110.22-9.041c1.53 0 2.76-1.237 2.76-2.761a2.757 2.757 0 0 0-2.76-2.761h-32.71a2.757 2.757 0 0 0-2.76 2.761 2.757 2.757 0 0 0 2.76 2.761h32.71zm-44.71 0c1.52 0 2.76-1.237 2.76-2.761a2.764 2.764 0 0 0-2.76-2.761h-5.48a2.757 2.757 0 0 0-2.76 2.761 2.757 2.757 0 0 0 2.76 2.761h5.48zm-92.9 0c1.52 0 2.76-1.237 2.76-2.761a2.764 2.764 0 0 0-2.76-2.761h-32.01a2.764 2.764 0 0 0-2.76 2.761 2.764 2.764 0 0 0 2.76 2.761h32.01zm54.73-10.666c-1.48.534-5.28 1.683-10.62 1.75-3 .037-5.56-.341-7.7-1.023h5.69a4.6 4.6 0 0 0 2.49-.727h10.14z" fill="#404040" transform="translate(.005)"></path><path d="M2090.51 175.169c-1.56.128-3.09.264-4.6.409a21.434 21.434 0 0 1-8.72-1.986 7.032 7.032 0 0 1 5.71-5.377l1.46-.242a5.342 5.342 0 0 0 4.37-4.272c.13-.671.27-1.392.41-2.125.81-4.282 4.18-7.62 8.47-8.399v-.001a6.963 6.963 0 0 0 5.67-7.61c-.15-1.31-.31-2.726-.46-4.152a17.289 17.289 0 0 1 8.85-17.069c2.34-1.284 4.78-2.626 6.97-3.833a18.653 18.653 0 0 0 9.24-12.407c1.02-4.737 2.35-10.898 3.63-16.834 2.52-11.746 13.08-20.008 25.09-19.639l1.28.04a24.895 24.895 0 0 1 23.06 17.66c1.47 4.872 3.03 9.993 4.3 14.198a18.36 18.36 0 0 0 11.94 12.147 14.306 14.306 0 0 1 9.93 13.621v8.361a8.748 8.748 0 0 0 5.3 8.033c1.38.593 2.9 1.243 4.37 1.875a11.352 11.352 0 0 1 6.84 11.369c-.07.857-.14 1.699-.21 2.48a5.443 5.443 0 0 0 3.51 5.548c.43.159.86.321 1.29.482a7.208 7.208 0 0 1 4.68 6.755v.319c-1.33.264-2.7.399-4.09.397l-7.39-.006-2.58.02-14.59-1.345c-24.6-2.267-43.6-22.615-44.17-47.313-.04-1.678-.06-2.661-.06-2.661-5.6 8.243-12.27 7.529-12.27 7.529-9.04 31.755-43.21 41.68-57.23 44.028zm46.36-82.757s.55 4.406.37 6.675c-.18 2.269-3.08 10.632 0 16.403 3.69 6.911 10.17 12.183 23.79 5.39 11.57-5.766 17.5-20.453 10.9-21.619-4.37-.771-7.3 6.849-7.3 6.849s-4.3-7.556-4.34-12.452c0 0-4.33 1.932-11.31 2.019-5.47.068-9.5-1.246-12.11-3.265z" fill="#797979" transform="translate(.005)"></path><path d="M2489.24 2404.58c.97.17.35 1.12-.12 1.46-2.89 2.16-5.18 6.74-5.19 12.43 0 0-.03.46-.23.61-.59.48-.63-2.37-.12-4.88.87-4.38 2.98-7.84 5.49-9.58 0 0 .08-.04.17-.04z" fill="#fff" fill-rule="nonzero" transform="matrix(2.5787 0 0 1.48837 -4272.15 -3505.654)"></path><path d="M2469.83 2472.34c1.01.26 5.68 4.51 9.73 6.39 11.98 5.55 24.84 4.34 36.68-2.44 0 0 3.7 2.29-.18 4.46-15.16 8.3-31.97 8.55-46.26-3.97-2.61-2.29-.78-4.46.03-4.44z" fill="#fff" fill-rule="nonzero" transform="matrix(.89542 .03478 -.01862 .47945 -40.821 -1115.355)"></path><path d="M2469.87 2473.12c.49.23.55.45.81.68 9.67 8.37 20.7 10.99 31.39 9.4 0 0 2.06.4 1.09 2.16-.28.51-.79.43-1.25.5-10.97 1.55-22.18-1.15-32.04-9.87-1.73-1.53-.54-2.98 0-2.87z" fill="#fff" fill-rule="nonzero" transform="matrix(1.42526 0 0 .76132 -1406.925 -1720.223)"></path><path d="M17697.8 1376.98c13.9-4.45 34.8-15.04 41.9-39.25.3-1.05.5-2 .7-2.88" fill="none" stroke="#fff" stroke-width="1.91" transform="matrix(1.07824 0 0 1.0188 -16979.979 -1231.733)"></path><path d="M17735.3 1313.74c.1.01.2.04.2.09 1 .64 2.2.99 3.4.87.4-.04.5.19.5.19l-.3.41c-.9.45-2 .6-3 .25 0 0-.9-.42-1.5-1.16v-.25-.11c0-.1.1-.19.2-.25s.3-.08.4-.06c0 0 .1.01.1.02z" fill="#fff" fill-rule="nonzero" transform="matrix(1.26742 0 0 1.5828 -20338.886 -1978.883)"></path><path d="M17741.3 1313.33c.2.03.3.18.4.38.1.2 0 .42-.1.55-1.4 1.26-3.1 2.26-4.9 1.7-.6-.16-1.5-1.01-1.9-1.37-.2-.09-.2-.25-.2-.4 0-.16.1-.31.2-.41.1-.1.2-.13.4-.1.9.24 2.6.65 3.5.5 1.1-.17 2.6-.86 2.6-.86v.01z" fill="#fff" fill-rule="nonzero" transform="matrix(1.18525 0 0 1.07708 -18869.683 -1313.343)"></path><path d="M17739.1 1321.59c-.1-.02-.2.04-.3.16-.1.12-.1.27-.1.4.4.74 1.2 1.89 2.6 1.85 1.4-.04 2.8-1.41 3.7-2.46.1-.13.1-.33 0-.48-.1-.15-.3-.21-.4-.14-1.3.43-3.2.91-5.5.67z" fill="#fff" transform="translate(-24254.195 -1853.983) scale(1.48815)"></path><path d="M2510.95 2480.69c1.19.43 1.48 2.1-.52 2.94-13.46 5.48-29.07 2.55-40.57-7.38-2.06-1.77-1.18-4.51 1.11-2.48 11.12 9.68 26.26 12.59 39.31 6.96 0 0 .25-.13.67-.04z" fill="#fff" fill-rule="nonzero" transform="matrix(.84272 -.14186 .11908 .70736 -241.727 -1250.943)"></path><path d="M21138.1 1333.45c.9-.75 2.2.37 1.4 1.03-10.9 8.87-16.1 22.52-14.4 35.15 0 0-.4 1.56-1.5.88-.4-.24-.4-.8-.5-1.24-1.5-12.99 4-26.86 15-35.82z" fill="#fff" fill-rule="nonzero" transform="matrix(1.06398 0 0 1.28852 -20273.186 -1580.533)"></path><path d="M21142.4 1330.48c5.1.57-3 5.84-6.8 10.55-7.3 9.04-10.5 18.85-9.2 28.78 0 0-.2.98-1.6 1.19-3.8.57-3.4-4.1-3.3-7.82.6-11 7.5-21.8 17.9-31.54.6-.63 1.3-1.25 3-1.16z" fill="#fff" fill-rule="nonzero" transform="matrix(.43573 0 0 .86161 -6995.477 -993.494)"></path><path d="M2216.8 132.671c-2.54-2.193-4.01-4.672-3.27-5.534.74-.863 3.41.217 5.96 2.41-.25-3.352.47-6.142 1.6-6.227 1.13-.085 2.26 2.567 2.51 5.919 2.19-2.548 4.67-4.014 5.54-3.272.86.742-.22 3.412-2.42 5.96 3.36-.251 6.15.466 6.23 1.6.09 1.134-2.56 2.259-5.92 2.51 2.55 2.192 4.02 4.672 3.27 5.534-.74.862-3.41-.218-5.95-2.41.25 3.352-.47 6.142-1.61 6.227-1.13.085-2.25-2.567-2.5-5.919-2.2 2.548-4.68 4.014-5.54 3.272-.86-.742.22-3.413 2.41-5.96-3.35.251-6.14-.466-6.23-1.6-.08-1.134 2.57-2.259 5.92-2.51zm4.7-.265c1.2-.256 2.37.506 2.63 1.701a2.221 2.221 0 0 1-1.7 2.627 2.216 2.216 0 0 1-2.63-1.7 2.215 2.215 0 0 1 1.7-2.628z" fill="#fff" transform="translate(.005)"></path><g><path d="M2146.03 98.209c-.11-.777-.62-1.081-1.06-.501-.24.317-.25.712-.28 1.375-.01.499-.21 1.266-.33 1.754-.34 1.32-.93 2.446-1.47 3.695-.39.903-.77 1.737-.76 2.78.01.887.4 1.548.99 2.172.26.284.7.608 1.14.796.49.203 1.11.085 1.09-.599-.03-.775-1.32-1.357-1.28-2.161.02-.361.18-.939.29-1.271.3-.887.72-1.742 1-2.634.33-1.069.9-3.709.67-5.406z" fill="#fff"></path></g></g></g></svg>