<svg xmlns="http://www.w3.org/2000/svg" width="24" height="24" viewBox="0 0 24 24" aria-hidden="true"><path d="M12 3a9 9 0 11-.001 18.001A9 9 0 0112 3zm0 1a8 8 0 100 16 8 8 0 000-16zm-.093 10.794c.47 0 .802.355.802.856 0 .495-.331.85-.802.85-.471 0-.808-.355-.808-.85 0-.501.337-.856.808-.856zm.128-7.294c1.465 0 2.465.954 2.465 2.213 0 .96-.47 1.639-1.215 2.11-.738.458-.948.8-.948 1.443v.397H11.32v-.562c-.006-.808.366-1.358 1.163-1.86.674-.433.936-.818.936-1.473 0-.758-.559-1.314-1.425-1.314-.878 0-1.436.544-1.5 1.418H9.5c.064-1.32.901-2.372 2.535-2.372z" fill="currentColor" fill-rule="nonzero"></path></svg>