<svg width="24" height="24" stroke-width="1px" viewBox="0 0 24 24" xmlns="http://www.w3.org/2000/svg"><path fill="currentColor" d="M12.527 3.075c.35.104.64.263 1.27.876L19.1 9.123c.374.364.49.505.601.678.11.174.185.351.232.552.042.178.062.34.066.742L20 17.718c0 .446-.046.607-.134.77a.906.906 0 01-.378.378c-.163.088-.324.134-.77.134H14v-4.718c0-.446-.046-.607-.134-.77a.906.906 0 00-.378-.378c-.142-.077-.284-.122-.616-.132L12.718 13h-1.436c-.446 0-.607.046-.77.134a.906.906 0 00-.378.378c-.077.142-.122.284-.132.616l-.002.154V19H5.282c-.446 0-.607-.046-.77-.134a.906.906 0 01-.378-.378c-.088-.163-.134-.324-.134-.77v-6.462c0-.522.02-.703.067-.903.047-.2.121-.378.232-.552l.077-.113c.098-.134.233-.282.524-.565l5.304-5.172c.629-.613.92-.772 1.269-.876a1.82 1.82 0 011.054 0zm-.286.958a.825.825 0 00-.482 0c-.18.054-.326.139-.63.418l-.227.216L5.598 9.84c-.3.293-.385.39-.456.5a.76.76 0 00-.102.242c-.026.112-.037.224-.04.531l.002 6.807.005.073.074.006L8.999 18 9 14.268l.003-.17c.013-.448.083-.749.249-1.058a1.9 1.9 0 01.788-.788c.306-.164.6-.234 1.043-.249l.199-.003h1.45l.17.003c.448.013.749.083 1.058.249.337.18.608.45.788.788.164.306.234.6.249 1.043l.003.199L14.999 18l3.92-.002.073-.006.006-.073.002-.2v-6.615l-.005-.218a1.494 1.494 0 00-.035-.305.747.747 0 00-.102-.242l-.059-.084a3.571 3.571 0 00-.294-.315l-5.407-5.273c-.425-.414-.604-.545-.798-.615l-.06-.019z"></path></svg>