<?xml version="1.0" encoding="utf-8"?>
<svg viewBox="0 0 500 500" xmlns="http://www.w3.org/2000/svg">
  <mask id="td-logo_svg__a" fill="#fff">
    <path d="M 0 0 L 31.861 0 L 31.861 31.552 L 0 31.552 L 0 0 Z" fill-rule="evenodd"/>
  </mask>
  <g fill="none" fill-rule="evenodd" transform="matrix(1.820409, 0, 0, 1.838251, 233.978973, 200.201691)" style="">
    <path d="M 3.982 0 C 1.787 0.005 0.008 1.767 0 3.944 L 0 27.608 C 0 29.777 1.792 31.552 3.982 31.552 L 27.879 31.552 C 30.069 31.552 31.861 29.777 31.861 27.608 L 31.861 3.944 C 31.861 1.775 30.069 0 27.879 0 L 3.982 0 Z" fill="#e44332" mask="url(#td-logo_svg__a)"/>
    <g fill="#fff">
      <path d="M6.792 15.157l12.865-7.479c.275-.16.289-.653-.02-.83-.308-.178-.893-.514-1.111-.643a1.004 1.004 0 00-.991.012c-.154.09-10.433 6.06-10.776 6.256-.412.236-.92.24-1.33 0L0 9.287v2.708c1.321.778 4.607 2.71 5.403 3.165.475.27.93.264 1.389-.003"/>
      <path d="M6.792 20.277l12.865-7.479c.275-.16.289-.653-.02-.83-.308-.178-.893-.514-1.111-.643a1.004 1.004 0 00-.991.012c-.154.09-10.433 6.06-10.776 6.256-.412.236-.92.24-1.33 0L0 14.407v2.708c1.321.778 4.607 2.71 5.403 3.165.475.27.93.264 1.389-.003"/>
      <path d="M6.792 25.717l12.865-7.479c.275-.16.289-.653-.02-.83-.308-.178-.893-.514-1.111-.643a1.004 1.004 0 00-.991.012c-.154.09-10.433 6.06-10.776 6.256-.412.236-.92.24-1.33 0L0 19.847v2.708c1.321.778 4.607 2.71 5.403 3.165.475.27.93.264 1.389-.003"/>
    </g>
  </g>
</svg>