<svg xmlns="http://www.w3.org/2000/svg" xmlns:xlink="http://www.w3.org/1999/xlink" width="92" height="24" version="1.1" viewBox="0 0 92 24"><title>logo</title><desc>Created with Sketch.</desc><g id="Page-1" fill="none" fill-rule="evenodd" stroke="none" stroke-width="1"><g id="logo" fill="#E44332"><g id="Group"><path id="Shape" d="M20.3907989,0.400000006 L3.19342616,0.400000006 C1.61700033,0.400000006 0.327197375,1.69630554 0.327197375,3.28067898 L0.327197375,6.98523214 C0.327197375,6.98523214 4.00743514,9.13421865 4.2424659,9.27249124 C4.54055369,9.44533198 4.90743098,9.43957062 5.19978631,9.27249124 C5.44628199,9.12845729 12.8640821,4.84776834 12.9729988,4.7843934 C13.2424243,4.62883674 13.5290472,4.68068896 13.689556,4.77863204 C13.8443323,4.87081377 14.2685342,5.1127908 14.4921,5.23954068 C14.7156659,5.36629055 14.704201,5.72349475 14.503565,5.83872191 C14.3029289,5.95394906 5.62972063,10.9720918 5.22271614,11.2083075 C4.89023361,11.3984323 4.56348352,11.4041937 4.21953607,11.2083075 C3.64629031,10.8799101 1.27305288,9.4971842 0.321464918,8.93833248 L0.321464918,10.8799101 C0.321464918,10.8799101 4.00170268,13.0288966 4.23673344,13.1671692 C4.53482124,13.3400099 4.90169852,13.3342486 5.19405386,13.1671692 C5.44054953,13.0231353 12.8583496,8.74244631 12.9672663,8.67907137 C13.2366918,8.52351471 13.5233147,8.57536693 13.6838235,8.67331001 C13.8385999,8.76549174 14.2628017,9.00746877 14.4863676,9.13421865 C14.7099334,9.26096852 14.6984685,9.61817272 14.4978325,9.73339988 C14.2971965,9.84862703 5.62398818,14.8667698 5.21698369,15.1029855 C4.88450115,15.2931103 4.55775107,15.2988716 4.21380361,15.1029855 C3.64055785,14.7745881 1.26732042,13.3918622 0.31573246,12.8330104 L0.31573246,14.7745881 C0.31573246,14.7745881 3.99597022,16.9235746 4.23100098,17.0618472 C4.52908878,17.2346879 4.89596606,17.2289266 5.1883214,17.0618472 C5.43481708,16.9178132 12.8526172,12.6371243 12.9615339,12.5737493 C13.2309594,12.4181927 13.5175823,12.4700449 13.6780911,12.567988 C13.8328674,12.6601697 14.2570693,12.9021467 14.4806351,13.0288966 C14.704201,13.1556465 14.6927361,13.5128507 14.4921,13.6280778 C14.291464,13.743305 5.61825572,18.7614478 5.21125123,18.9976634 C4.87876869,19.1877883 4.55201861,19.1935496 4.20807115,18.9976634 C3.6348254,18.669266 1.26158796,17.2865401 0.310000002,16.7276884 L0.310000002,20.599321 C0.310000002,22.1836944 1.59980296,23.4799999 3.17622879,23.4799999 L20.3736015,23.4799999 C21.9500274,23.4799999 23.2398303,22.1836944 23.2398303,20.599321 L23.2398303,3.31524713 C23.2570277,1.69630554 21.9672247,0.400000006 20.3907989,0.400000006 L20.3907989,0.400000006 Z M37.745,14.12 C37.745,13.36 37.881,12.673 38.152,12.055 C38.422,11.437 38.789,10.909 39.252,10.47 C39.712,10.032 40.26,9.693 40.892,9.453 C41.528,9.213 42.202,9.093 42.915,9.093 C43.627,9.093 44.301,9.213 44.935,9.453 C45.568,9.693 46.115,10.033 46.578,10.47 C47.041,10.91 47.408,11.437 47.678,12.055 C47.948,12.673 48.084,13.361 48.084,14.119 C48.084,14.876 47.948,15.564 47.677,16.182 C47.407,16.8 47.041,17.327 46.577,17.767 C46.117,18.205 45.567,18.545 44.934,18.783 C44.301,19.023 43.627,19.143 42.914,19.143 C42.201,19.143 41.528,19.023 40.894,18.783 C40.26,18.545 39.712,18.205 39.251,17.767 C38.791,17.327 38.421,16.8 38.153,16.182 C37.883,15.564 37.746,14.876 37.746,14.118 L37.745,14.12 Z M40.122,14.118 C40.122,14.488 40.186,14.848 40.312,15.193 C40.438,15.54 40.622,15.845 40.866,16.111 C41.111,16.377 41.406,16.591 41.748,16.749 C42.091,16.909 42.482,16.989 42.918,16.989 C43.352,16.989 43.742,16.909 44.085,16.749 C44.428,16.591 44.722,16.379 44.967,16.112 C45.21,15.846 45.397,15.542 45.521,15.194 C45.644,14.85 45.707,14.49 45.707,14.118 C45.707,13.745 45.644,13.385 45.52,13.038 C45.394,12.694 45.208,12.388 44.965,12.123 C44.72,11.857 44.425,11.643 44.083,11.485 C43.74,11.325 43.35,11.245 42.915,11.245 C42.48,11.245 42.089,11.325 41.745,11.485 C41.403,11.645 41.109,11.857 40.865,12.123 C40.619,12.389 40.435,12.693 40.31,13.039 C40.184,13.386 40.12,13.746 40.12,14.119 L40.122,14.118 Z M57.22,17.468 L57.18,17.468 C56.836,18.054 56.375,18.478 55.793,18.745 C55.213,19.01 54.586,19.143 53.913,19.143 C53.173,19.143 52.516,19.013 51.941,18.755 C51.368,18.495 50.876,18.14 50.467,17.687 C50.057,17.237 49.747,16.704 49.535,16.092 C49.325,15.482 49.219,14.822 49.219,14.119 C49.219,13.414 49.329,12.755 49.556,12.143 C49.78,11.533 50.093,11.001 50.496,10.548 C50.899,10.096 51.384,9.741 51.951,9.481 C52.521,9.221 53.141,9.091 53.813,9.091 C54.263,9.091 54.659,9.139 55.003,9.231 C55.346,9.325 55.649,9.444 55.913,9.591 C56.177,9.738 56.403,9.894 56.587,10.059 C56.771,10.227 56.924,10.389 57.042,10.549 L57.102,10.549 L57.102,5.276 C57.102,5.036 57.29,4.756 57.62,4.756 L58.963,4.756 C59.273,4.756 59.481,5.018 59.481,5.276 L59.481,18.382 C59.481,18.715 59.201,18.902 58.964,18.902 L57.744,18.902 C57.452,18.902 57.224,18.657 57.224,18.382 L57.224,17.467 L57.22,17.468 Z M51.594,14.118 C51.594,14.491 51.657,14.851 51.784,15.195 C51.908,15.542 52.092,15.847 52.337,16.113 C52.582,16.379 52.877,16.593 53.219,16.751 C53.561,16.911 53.951,16.991 54.386,16.991 C54.821,16.991 55.212,16.911 55.556,16.751 C55.898,16.593 56.192,16.381 56.436,16.114 C56.68,15.848 56.866,15.544 56.991,15.196 C57.115,14.852 57.178,14.492 57.178,14.12 C57.178,13.747 57.114,13.387 56.99,13.04 C56.865,12.696 56.68,12.39 56.435,12.125 C56.191,11.859 55.897,11.645 55.555,11.487 C55.211,11.327 54.82,11.247 54.385,11.247 C53.95,11.247 53.56,11.327 53.217,11.487 C52.873,11.647 52.579,11.859 52.334,12.125 C52.089,12.391 51.904,12.695 51.78,13.041 C51.654,13.388 51.59,13.748 51.59,14.121 L51.594,14.118 Z M61.032,14.12 C61.032,13.36 61.167,12.673 61.438,12.055 C61.708,11.437 62.075,10.909 62.538,10.47 C62.998,10.032 63.548,9.693 64.18,9.453 C64.815,9.213 65.487,9.093 66.2,9.093 C66.914,9.093 67.587,9.213 68.22,9.453 C68.854,9.693 69.402,10.033 69.865,10.47 C70.328,10.91 70.693,11.437 70.965,12.055 C71.235,12.673 71.371,13.361 71.371,14.119 C71.371,14.876 71.236,15.564 70.965,16.182 C70.695,16.8 70.329,17.327 69.865,17.767 C69.403,18.205 68.855,18.545 68.222,18.783 C67.589,19.023 66.916,19.143 66.202,19.143 C65.489,19.143 64.817,19.023 64.182,18.783 C63.549,18.545 63,18.205 62.539,17.767 C62.077,17.327 61.709,16.8 61.439,16.182 C61.169,15.564 61.034,14.876 61.034,14.118 L61.032,14.12 Z M63.41,14.118 C63.41,14.488 63.473,14.848 63.598,15.193 C63.724,15.54 63.908,15.845 64.153,16.111 C64.399,16.377 64.693,16.591 65.036,16.749 C65.379,16.909 65.769,16.989 66.204,16.989 C66.64,16.989 67.03,16.909 67.374,16.749 C67.717,16.591 68.011,16.379 68.256,16.112 C68.499,15.846 68.684,15.542 68.81,15.194 C68.934,14.85 68.997,14.49 68.997,14.118 C68.997,13.745 68.934,13.385 68.81,13.038 C68.684,12.694 68.5,12.388 68.256,12.123 C68.011,11.857 67.716,11.643 67.374,11.485 C67.03,11.325 66.64,11.245 66.204,11.245 C65.77,11.245 65.38,11.325 65.037,11.485 C64.693,11.645 64.4,11.857 64.155,12.123 C63.911,12.389 63.727,12.693 63.601,13.039 C63.476,13.386 63.413,13.746 63.413,14.119 L63.41,14.118 Z M72.568,6.084 C72.568,5.698 72.71,5.364 72.994,5.076 C73.279,4.791 73.638,4.648 74.074,4.648 C74.509,4.648 74.876,4.784 75.174,5.058 C75.469,5.328 75.619,5.672 75.619,6.084 C75.619,6.496 75.469,6.838 75.172,7.111 C74.875,7.385 74.508,7.521 74.072,7.521 C73.637,7.521 73.278,7.378 72.992,7.091 C72.709,6.805 72.567,6.471 72.567,6.085 L72.568,6.084 Z M82.38,11.985 C82.142,11.985 81.967,11.805 81.937,11.725 C81.74,11.205 81.11,11.009 80.602,11.009 C79.8,11.009 79.172,11.382 79.172,12.025 C79.172,12.647 79.78,12.775 80.156,12.889 C80.569,13.015 81.356,13.189 81.792,13.291 C82.234,13.395 82.645,13.549 83.03,13.751 C84.292,14.409 84.47,15.447 84.47,16.071 C84.47,18.377 82.203,19.141 80.627,19.141 C79.413,19.141 77.132,18.956 76.631,16.626 C76.583,16.399 76.783,16.051 77.149,16.051 L78.461,16.051 C78.719,16.051 78.893,16.241 78.944,16.389 C79.114,16.857 79.649,17.211 80.552,17.211 C81.522,17.211 82.096,16.824 82.096,16.309 C82.096,15.977 81.908,15.681 81.664,15.514 C80.928,15.012 79.11,14.954 78.124,14.426 C77.746,14.224 76.797,13.761 76.797,12.184 C76.797,10.01 78.76,9.094 80.485,9.094 C83.029,9.094 83.962,10.711 84.068,11.311 C84.126,11.641 83.942,11.984 83.572,11.984 L82.382,11.984 L82.38,11.985 Z M84.708,10.8 L84.708,9.81 C84.708,9.575 84.893,9.29 85.222,9.29 L86.489,9.29 L86.489,6.86 C86.489,6.6 86.663,6.442 86.796,6.384 C86.876,6.35 87.583,6.038 88.15,5.79 C88.546,5.626 88.867,5.954 88.867,6.27 L88.867,9.29 L90.964,9.29 C91.288,9.29 91.481,9.576 91.481,9.81 L91.481,10.802 C91.481,11.089 91.227,11.324 90.965,11.324 L88.868,11.324 L88.868,15.512 C88.868,15.99 88.854,16.364 89.036,16.642 C89.202,16.894 89.446,16.988 89.936,16.988 C90.076,16.988 90.202,16.964 90.308,16.928 C90.618,16.821 90.851,17.004 90.93,17.158 C91.083,17.458 91.26,17.79 91.384,18.028 C91.521,18.288 91.411,18.621 91.162,18.743 C90.759,18.94 90.202,19.099 89.438,19.099 C88.805,19.099 88.446,19.029 88.045,18.889 C87.642,18.749 87.26,18.453 87.029,18.169 C86.796,17.882 86.681,17.499 86.596,17.075 C86.509,16.65 86.488,16.135 86.488,15.575 L86.488,11.323 L85.223,11.323 C84.891,11.323 84.706,11.033 84.706,10.8 L84.708,10.8 Z M30.29,10.8 L30.29,9.81 C30.29,9.575 30.476,9.29 30.804,9.29 L32.252,9.29 L32.252,6.86 C32.252,6.6 32.428,6.442 32.56,6.384 C32.64,6.35 33.347,6.038 33.914,5.79 C34.309,5.626 34.63,5.954 34.63,6.27 L34.63,9.29 L36.727,9.29 C37.051,9.29 37.244,9.576 37.244,9.81 L37.244,10.802 C37.244,11.089 36.989,11.324 36.727,11.324 L34.63,11.324 L34.63,15.512 C34.63,15.99 34.616,16.364 34.798,16.642 C34.964,16.894 35.208,16.988 35.698,16.988 C35.838,16.988 35.964,16.964 36.07,16.928 C36.38,16.821 36.613,17.004 36.692,17.158 C36.846,17.458 37.022,17.79 37.147,18.028 C37.284,18.288 37.174,18.621 36.925,18.743 C36.523,18.94 35.965,19.099 35.201,19.099 C34.569,19.099 34.211,19.029 33.809,18.889 C33.406,18.749 33.024,18.453 32.793,18.169 C32.561,17.882 32.446,17.499 32.361,17.075 C32.274,16.65 32.253,16.135 32.253,15.575 L32.253,11.323 L30.809,11.323 C30.477,11.323 30.292,11.033 30.292,10.8 L30.29,10.8 Z M73.422,18.904 L74.765,18.904 C75.05,18.904 75.282,18.67 75.282,18.384 L75.282,9.854 C75.282,9.568 75.05,9.334 74.765,9.334 L73.422,9.334 C73.138,9.334 72.905,9.568 72.905,9.854 L72.905,18.384 C72.905,18.67 73.138,18.904 73.422,18.904 L73.422,18.904 Z"/></g></g></g></svg>