<svg width="129" height="32" viewBox="0 0 129 32" fill="none" xmlns="http://www.w3.org/2000/svg">
<path d="M46.25 25.225C47.175 25.225 47.825 25.075 48.3 24.9V22.5C47.875 22.675 47.425 22.75 46.825 22.75C45.875 22.75 45.325 22.225 45.325 21.075V14.2H48.2V11.925H45.325V9.05H42.3V11.925H40.55V14.2H42.3V21.35C42.3 23.825 43.65 25.225 46.25 25.225Z" fill="#202020"/>
<path d="M56.8786 22.9C54.5786 22.9 53.2536 21.225 53.2536 18.55V18.35C53.2536 15.65 54.6286 14.025 56.8786 14.025C59.1286 14.025 60.4786 15.675 60.4786 18.375V18.55C60.4786 21.225 59.1286 22.9 56.8786 22.9ZM56.8536 25.25C60.7036 25.25 63.5786 22.6 63.5786 18.525V18.325C63.5786 14.325 60.7036 11.65 56.8786 11.65C53.0286 11.65 50.1536 14.35 50.1536 18.4V18.6C50.1536 22.575 53.0036 25.25 56.8536 25.25Z" fill="#202020"/>
<path d="M71.2118 25.25C73.1368 25.25 74.8118 24.1 75.5118 22.8V25H78.5368V5.875H75.5118V13.925C74.7868 12.625 73.4618 11.65 71.3368 11.65C67.9368 11.65 65.4618 14.3 65.4618 18.475V18.675C65.4618 22.925 67.9368 25.25 71.2118 25.25ZM71.9618 22.85C70.0118 22.85 68.5618 21.475 68.5618 18.6V18.4C68.5618 15.575 69.8618 14.025 72.0868 14.025C74.2868 14.025 75.6118 15.45 75.6118 18.325V18.525C75.6118 21.45 74.0618 22.85 71.9618 22.85Z" fill="#202020"/>
<path d="M87.9821 22.9C85.6821 22.9 84.3571 21.225 84.3571 18.55V18.35C84.3571 15.65 85.7321 14.025 87.9821 14.025C90.2321 14.025 91.5821 15.675 91.5821 18.375V18.55C91.5821 21.225 90.2321 22.9 87.9821 22.9ZM87.9571 25.25C91.8071 25.25 94.6821 22.6 94.6821 18.525V18.325C94.6821 14.325 91.8071 11.65 87.9821 11.65C84.1321 11.65 81.2571 14.35 81.2571 18.4V18.6C81.2571 22.575 84.1071 25.25 87.9571 25.25Z" fill="#202020"/>
<path d="M97.4903 25H100.515V11.925H97.4903V25ZM98.9653 9.775C99.9653 9.775 100.765 9.025 100.765 8.05C100.765 7.05 99.9653 6.3 98.9653 6.3C97.9653 6.3 97.1653 7.05 97.1653 8.05C97.1653 9.025 97.9653 9.775 98.9653 9.775Z" fill="#202020"/>
<path d="M108.677 25.25C112.027 25.25 113.902 23.725 113.902 21.075C113.902 18.3 112.077 17.55 109.002 17.075C106.927 16.725 106.302 16.35 106.302 15.4C106.302 14.475 107.077 13.85 108.377 13.85C109.777 13.85 110.452 14.4 110.702 15.6H113.502C113.177 12.65 111.052 11.65 108.377 11.65C105.927 11.65 103.477 12.95 103.477 15.575C103.477 18.025 104.752 19 108.202 19.55C110.127 19.875 111.002 20.275 111.002 21.35C111.002 22.45 110.277 23.025 108.652 23.025C106.877 23.025 106.202 22.25 106.052 20.925H103.202C103.327 23.7 105.302 25.25 108.677 25.25Z" fill="#202020"/>
<path d="M116.556 25H119.581V17.3C119.581 15.225 120.956 14.175 122.656 14.175C124.456 14.175 125.256 15.075 125.256 17.05V25H128.281V16.775C128.281 13.175 126.431 11.65 123.806 11.65C121.656 11.65 120.206 12.725 119.581 14V5.875H116.556V25Z" fill="#202020"/>
<path fill-rule="evenodd" clip-rule="evenodd" d="M4.005 0C2.9444 0.00237159 1.92785 0.424402 1.17742 1.17389C0.426996 1.92338 0.0036965 2.93941 0 4L0 28C0 30.2 1.802 32 4.005 32H28.037C30.24 32 32.042 30.2 32.042 28V4C32.042 1.8 30.24 0 28.037 0H4.005Z" fill="#E44332"/>
<path fill-rule="evenodd" clip-rule="evenodd" d="M6.792 15.157L19.657 7.67795C19.932 7.51795 19.946 7.02495 19.637 6.84795C19.329 6.66995 18.744 6.33395 18.526 6.20495C18.3739 6.12105 18.2026 6.07805 18.0289 6.08015C17.8552 6.08226 17.685 6.12939 17.535 6.21695C17.381 6.30695 7.102 12.277 6.759 12.473C6.347 12.709 5.839 12.713 5.429 12.473L0 9.28695V11.995C1.321 12.773 4.607 14.705 5.403 15.16C5.878 15.43 6.333 15.424 6.792 15.157Z" fill="white"/>
<path fill-rule="evenodd" clip-rule="evenodd" d="M6.792 20.2771L19.657 12.7981C19.932 12.6381 19.946 12.1451 19.637 11.9681C19.329 11.7901 18.744 11.4541 18.526 11.3251C18.3739 11.2412 18.2026 11.1982 18.0289 11.2003C17.8552 11.2024 17.685 11.2495 17.535 11.3371C17.381 11.4271 7.102 17.3971 6.759 17.5931C6.347 17.8291 5.839 17.8331 5.429 17.5931L0 14.4071V17.1151C1.321 17.8931 4.607 19.8251 5.403 20.2801C5.878 20.5501 6.333 20.5441 6.792 20.2771Z" fill="white"/>
<path fill-rule="evenodd" clip-rule="evenodd" d="M6.792 25.717L19.657 18.238C19.932 18.078 19.946 17.585 19.637 17.408C19.329 17.23 18.744 16.894 18.526 16.765C18.3739 16.6811 18.2026 16.6381 18.0289 16.6402C17.8552 16.6423 17.685 16.6894 17.535 16.777C17.381 16.867 7.102 22.837 6.759 23.033C6.347 23.269 5.839 23.273 5.429 23.033L0 19.847V22.555C1.321 23.333 4.607 25.265 5.403 25.72C5.878 25.99 6.333 25.984 6.792 25.717Z" fill="white"/>
</svg>
