<svg width="24" height="24" viewBox="0 0 24 24" class="scheduler-suggestions-item-icon--next-week" aria-hidden="true" focusable="false">
    <g fill="inherit" fill-rule="evenodd">
        <path fill-rule="nonzero" d="M6 4.5h12A1.5 1.5 0 0 1 19.5 6v2.5h-15V6A1.5 1.5 0 0 1 6 4.5z" opacity=".1"></path>
        <path fill-rule="nonzero" d="M18 4a2 2 0 0 1 2 2v12a2 2 0 0 1-2 2H6a2 2 0 0 1-2-2V6a2 2 0 0 1 2-2h12zm0 1H6a1 1 0 0 0-1 1v12a1 1 0 0 0 1 1h12a1 1 0 0 0 1-1V6a1 1 0 0 0-1-1zm-2.109 8.188l.007.01-.004-.005-.003-.005zM17 8a.5.5 0 1 1 0 1H7a.5.5 0 0 1 0-1h10zm-1 5.52a.504.504 0 0 1-.023.131l-.015.04a.494.494 0 0 1-.05.093l-.014.018a.503.503 0 0 1-.033.04l-2.511 2.512a.5.5 0 0 1-.765-.638l.057-.07L14.292 14H8.5a.5.5 0 0 1-.492-.41L8 13.5a.5.5 0 0 1 .41-.492L8.5 13h5.792l-1.646-1.646a.5.5 0 0 1 .638-.765l.07.057 2.511 2.513.017.019.009.01-.027-.03.03.035.029.04a.52.52 0 0 1 .066.162l.008.052v.007l-.002-.026.005.072v.02z"></path>
    </g>
</svg>