<?xml version="1.0" standalone="no"?>
<svg xmlns="http://www.w3.org/2000/svg" width="16" height="16" stroke-width="1.5" stroke="#fff" fill="none" stroke-linejoin="arcs" stroke-linecap="square" viewBox="0 0 24 24"> <g fill="none" fill-rule="evenodd"><rect width="24" height="24" style="stroke:rgba(0,0,0,0)"></rect><path d="M2,12 C2,17.521 7,22 11.594,22 C14.839,22 14.432,19.838 13.757,19.162 C13.081,18.486 12.54,17.946 12.676,17.136 C12.787,16.469 13.351,15.919 14.568,15.919 L16.323,15.919 C17.81,15.919 19.431,15.647 20.379,14.838 C21.46,13.911 22,12.54 22,11.056 C22,6.188 17.867,2 12.27,2 C6.673,2 2,6.478 2,12 Z M6.25,9.5 C6.94,9.5 7.5,10.06 7.5,10.75 C7.5,11.439 6.94,12 6.25,12 C5.56,12 5,11.439 5,10.75 C5,10.06 5.56,9.5 6.25,9.5 Z M17.75,9.5 C18.44,9.5 19,10.06 19,10.75 C19,11.439 18.44,12 17.75,12 C17.06,12 16.5,11.439 16.5,10.75 C16.5,10.06 17.06,9.5 17.75,9.5 Z M12,5 C12.69,5 13.25,5.56 13.25,6.25 C13.25,6.939 12.69,7.5 12,7.5 C11.31,7.5 10.75,6.939 10.75,6.25 C10.75,5.56 11.31,5 12,5 Z" stroke="#fff"></path></g></svg>