<svg width="24" height="24" viewBox="0 0 24 24" class="scheduler-suggestions-item-icon--tomorrow" aria-hidden="true" focusable="false">
    <g fill="inherit" fill-rule="nonzero">
        <path d="M12 15.5a3.5 3.5 0 1 0 0-7 3.5 3.5 0 0 0 0 7z" opacity=".1"></path>
        <path d="M9.704 17.543a.5.5 0 0 1 .27.654l-.956 2.31a.5.5 0 0 1-.924-.383l.957-2.31a.5.5 0 0 1 .653-.27zm5.245.27l.957 2.31a.5.5 0 0 1-.924.383l-.956-2.31a.5.5 0 0 1 .923-.382zM12 7.5a4.5 4.5 0 1 1 0 9 4.5 4.5 0 0 1 0-9zm-5.543 6.796a.5.5 0 0 1-.27.653l-2.31.957a.5.5 0 0 1-.383-.924l2.31-.956a.5.5 0 0 1 .653.27zm11.74-.27l2.31.956a.5.5 0 0 1-.383.924l-2.31-.957a.5.5 0 0 1 .383-.923zM12 8.5a3.5 3.5 0 1 0 0 7 3.5 3.5 0 0 0 0-7zm-8.124-.406l2.31.957a.5.5 0 0 1-.383.923l-2.31-.956a.5.5 0 0 1 .383-.924zm16.9.27a.5.5 0 0 1-.27.654l-2.31.956a.5.5 0 0 1-.382-.923l2.31-.957a.5.5 0 0 1 .653.27zM9.019 3.495l.956 2.31a.5.5 0 0 1-.923.382l-.957-2.31a.5.5 0 1 1 .924-.382zm6.617-.27a.5.5 0 0 1 .271.652l-.957 2.31a.5.5 0 0 1-.923-.383l.956-2.31a.5.5 0 0 1 .653-.27z"></path>
    </g>
</svg>